<?xml version="1.0" standalone="no"?>
<!DOCTYPE svg PUBLIC "-//W3C//DTD SVG 20010904//EN"
 "http://www.w3.org/TR/2001/REC-SVG-20010904/DTD/svg10.dtd">
<svg version="1.0" xmlns="http://www.w3.org/2000/svg"
 width="547.000000pt" height="456.000000pt" viewBox="0 0 547.000000 456.000000"
 preserveAspectRatio="xMidYMid meet">

<g transform="translate(0.000000,456.000000) scale(0.100000,-0.100000)"
fill="#000000" stroke="none">
<path d="M4673 4405 c-56 -7 -117 -18 -135 -25 -60 -24 -142 -81 -201 -138
l-58 -57 -112 -1 c-95 -1 -122 -5 -179 -27 -121 -47 -199 -112 -251 -212 -34
-64 -68 -177 -66 -220 3 -67 1 -69 -43 -31 -78 67 -310 175 -488 227 -167 49
-461 45 -594 -8 -125 -51 -424 -208 -526 -276 -259 -175 -374 -277 -505 -452
-63 -84 -135 -190 -135 -200 0 -2 -25 -55 -56 -117 -67 -138 -79 -172 -94
-267 -11 -79 -15 -525 -4 -651 7 -92 32 -194 79 -325 45 -127 44 -121 15 -117
-14 2 -75 6 -137 9 -97 4 -120 2 -173 -16 -99 -34 -150 -64 -247 -144 -116
-97 -198 -202 -217 -279 -4 -19 -19 -34 -48 -49 -94 -48 -231 -215 -262 -320
-8 -26 -14 -98 -15 -170 -2 -120 7 -176 41 -262 38 -97 292 -140 443 -74 43
18 83 27 140 30 69 3 91 9 161 44 97 49 145 79 204 131 l44 40 51 -16 c100
-30 314 -4 393 48 104 69 232 204 232 245 0 22 12 19 90 -20 118 -60 269 -114
398 -145 108 -26 559 -41 638 -21 104 25 282 86 359 121 44 21 105 48 135 61
49 20 90 44 180 105 42 29 248 235 309 309 55 67 131 176 195 280 35 58 60
122 76 200 7 33 25 114 40 180 49 212 60 293 62 460 1 119 -3 173 -14 210 -25
81 -76 277 -83 320 -4 22 -22 69 -41 105 -42 81 -43 100 -7 100 46 0 234 70
340 126 146 78 227 161 247 255 4 17 29 44 76 78 89 66 140 143 149 220 6 54
6 54 81 106 41 29 85 66 96 83 36 53 54 149 53 284 -1 143 -6 165 -40 190 -35
27 -192 64 -323 77 -127 13 -137 13 -273 -4z m364 -146 c59 -11 114 -24 122
-29 12 -6 14 -28 12 -107 -5 -193 -26 -226 -204 -312 -67 -33 -142 -63 -167
-66 -64 -10 -80 -21 -80 -54 0 -47 48 -54 152 -21 34 11 67 20 71 20 10 0 2
-30 -20 -77 -32 -69 -197 -146 -343 -159 -76 -7 -92 -23 -69 -65 11 -21 16
-22 110 -16 55 3 99 3 99 -1 0 -30 -146 -139 -232 -173 -28 -11 -72 -29 -97
-41 -46 -21 -250 -52 -262 -39 -3 3 -52 68 -108 143 -56 75 -138 176 -182 223
l-80 86 20 33 c13 21 21 50 21 79 0 54 32 164 68 229 42 80 145 133 278 145
81 7 93 -1 69 -46 -17 -35 -11 -59 19 -71 33 -12 45 -2 78 64 34 67 119 156
209 217 66 45 123 56 296 58 77 1 146 -6 220 -20z m-1597 -556 c67 -31 120
-79 120 -109 0 -34 -28 -92 -53 -108 -32 -20 -153 -56 -191 -56 -37 0 -105 30
-126 55 -9 11 -14 35 -13 62 2 53 51 120 122 164 50 32 56 32 141 -8z m-449
-273 c36 -10 80 -25 97 -34 17 -9 37 -16 44 -16 28 0 161 -61 220 -101 101
-69 136 -122 318 -489 56 -113 105 -288 121 -433 13 -119 -4 -519 -27 -616
-34 -151 -242 -388 -450 -515 -62 -38 -367 -168 -421 -180 -65 -15 -286 -9
-348 9 -112 32 -150 46 -185 69 -19 13 -72 45 -118 71 -84 48 -203 149 -283
241 -24 29 -71 102 -104 164 -33 61 -70 127 -82 145 -12 19 -35 74 -52 122
-29 86 -30 95 -36 341 l-7 252 56 105 c31 57 65 129 76 158 31 82 103 218 147
279 64 85 199 205 300 265 88 51 222 113 247 113 6 0 54 14 106 30 164 53 248
57 381 20z m1170 -583 c74 -50 102 -157 54 -209 -28 -30 -121 -68 -168 -68
-65 0 -197 86 -197 129 0 12 30 52 73 96 l72 75 66 0 c52 0 73 -5 100 -23z
m-2547 -19 c45 -11 86 -48 86 -78 0 -31 -47 -118 -74 -135 -26 -18 -186 -40
-221 -31 -35 9 -55 34 -55 67 0 36 11 37 45 3 23 -23 33 -26 72 -21 63 7 98
35 98 78 0 27 -7 38 -34 56 -37 25 -99 31 -119 11 -19 -19 -26 -1 -12 31 11
27 17 30 64 34 56 4 91 0 150 -15z m-129 -102 c27 -19 13 -48 -22 -44 -31 3
-44 35 -21 49 18 12 21 11 43 -5z m2642 -1031 c47 -20 83 -53 83 -76 0 -10 -9
-42 -20 -72 -27 -72 -78 -98 -201 -105 -93 -5 -140 6 -183 39 -37 29 -33 64
14 134 55 83 101 107 197 100 40 -2 89 -12 110 -20z m-2389 -141 c24 -5 38
-19 64 -63 30 -49 33 -60 24 -89 -5 -19 -26 -46 -49 -65 -35 -27 -50 -32 -109
-35 -37 -3 -78 -2 -91 2 -38 9 -77 52 -77 84 0 34 45 108 89 145 34 28 80 35
149 21z m-487 -166 c30 -6 74 -12 99 -12 43 -1 46 -3 70 -48 102 -193 111
-207 201 -304 31 -33 60 -67 65 -75 5 -8 42 -39 82 -69 39 -29 72 -57 72 -60
0 -17 -124 -172 -161 -201 -58 -46 -101 -58 -205 -59 -122 0 -146 6 -166 41
-27 47 -50 38 -156 -63 -108 -104 -190 -153 -270 -164 -57 -7 -62 -2 -38 44
22 43 30 100 16 117 -23 28 -80 13 -80 -22 0 -7 -14 -44 -31 -83 -43 -94 -70
-111 -193 -118 -181 -9 -201 12 -201 218 0 130 1 137 31 200 36 77 123 168
191 201 36 17 71 23 165 28 103 5 122 9 134 25 18 25 18 31 -2 50 -12 12 -37
16 -105 16 -99 0 -105 5 -67 56 96 128 272 252 398 280 72 16 87 16 151 2z
m1333 -444 l46 -7 0 -46 c-1 -59 -27 -115 -79 -169 -44 -45 -94 -72 -133 -72
-33 0 -124 45 -131 65 -4 9 -7 39 -7 67 0 46 4 55 39 88 75 72 142 90 265 74z"/>
<path d="M4960 4065 c-42 -44 -87 -65 -139 -65 -108 0 -196 -43 -184 -89 8
-29 32 -34 99 -16 32 8 78 15 101 15 57 0 104 20 164 71 52 44 69 80 49 104
-20 25 -54 17 -90 -20z"/>
<path d="M4247 3895 c-55 -54 -18 -210 66 -281 68 -58 210 -99 256 -74 23 12
28 49 9 68 -7 7 -24 12 -40 12 -40 0 -118 28 -156 57 -45 34 -62 72 -62 141 0
44 -5 63 -18 75 -23 21 -36 21 -55 2z"/>
<path d="M4013 3779 c-34 -12 -46 -70 -42 -200 4 -104 7 -118 33 -164 69 -119
134 -173 242 -201 73 -20 163 -15 178 9 20 32 -5 51 -85 64 -139 23 -187 54
-245 158 -23 42 -29 65 -32 142 -3 53 0 105 7 123 17 51 -11 86 -56 69z"/>
<path d="M3317 3657 c-18 -14 -30 -35 -34 -59 -5 -32 -1 -41 24 -67 56 -56
165 -50 187 10 15 43 0 75 -51 108 -55 37 -88 39 -126 8z m87 -47 c19 -7 26
-17 26 -35 0 -21 -5 -25 -29 -25 -32 0 -63 32 -54 56 6 16 22 18 57 4z"/>
<path d="M2800 2834 c-104 -15 -233 -46 -294 -70 -53 -21 -146 -93 -198 -156
-138 -165 -203 -295 -213 -427 -5 -58 -2 -72 22 -121 24 -47 37 -60 88 -87 85
-46 198 -89 331 -128 112 -34 118 -34 212 -25 53 5 121 16 150 24 119 32 287
163 351 272 19 33 44 70 56 84 59 68 115 237 115 348 0 47 -4 57 -32 83 -49
45 -171 126 -261 172 -70 35 -89 41 -156 43 -42 1 -119 -4 -171 -12z m296
-139 c131 -66 208 -124 212 -161 4 -36 -51 -208 -79 -246 -10 -15 -33 -51 -50
-79 -49 -84 -109 -147 -186 -199 -80 -54 -111 -65 -221 -81 -76 -11 -101 -7
-267 42 -154 45 -274 102 -301 144 -44 67 73 309 220 454 100 100 105 102 361
150 166 32 206 29 311 -24z"/>
<path d="M2647 2516 c-27 -7 -55 -20 -64 -28 -23 -24 -63 -145 -63 -194 0 -55
34 -126 85 -174 35 -34 38 -35 129 -38 84 -3 98 -1 143 22 52 26 70 52 92 131
25 91 6 159 -62 226 -67 66 -151 84 -260 55z m157 -147 c34 -27 37 -91 4 -126
-31 -33 -91 -32 -123 3 -54 58 -18 144 60 144 18 0 44 -9 59 -21z"/>
<path d="M4039 2787 c-9 -7 -23 -27 -33 -44 -32 -62 4 -113 79 -113 38 0 80
19 97 44 15 21 7 60 -18 93 -21 28 -31 33 -67 33 -23 0 -49 -6 -58 -13z m89
-64 c4 -24 -30 -48 -54 -39 -20 8 -18 43 4 55 25 16 47 9 50 -16z"/>
<path d="M3919 1645 c-32 -17 -59 -57 -59 -85 0 -12 11 -32 25 -45 41 -42 116
-29 148 25 25 41 21 75 -9 99 -31 24 -68 26 -105 6z m59 -72 c-2 -22 -9 -29
-29 -31 -18 -2 -29 3 -33 14 -9 23 11 44 41 44 21 0 24 -4 21 -27z"/>
<path d="M1633 1500 c-28 -17 -33 -25 -33 -59 0 -31 6 -44 27 -61 34 -27 68
-20 106 21 28 31 34 67 17 100 -14 26 -75 25 -117 -1z m72 -50 c0 -18 -6 -26
-23 -28 -24 -4 -38 18 -28 44 3 9 15 14 28 12 17 -2 23 -10 23 -28z"/>
<path d="M1206 1227 c-31 -23 -17 -59 36 -87 84 -46 125 -86 159 -158 27 -55
33 -80 33 -137 1 -38 -2 -79 -7 -91 -5 -15 -2 -28 11 -44 26 -32 56 -19 76 31
58 143 -47 385 -200 462 -70 35 -88 39 -108 24z"/>
<path d="M952 1088 c-18 -18 -15 -41 12 -77 24 -32 56 -144 56 -192 0 -13 -9
-42 -21 -66 -20 -41 -20 -45 -5 -68 9 -14 25 -25 34 -25 41 0 82 77 82 152 0
49 -28 173 -47 213 -33 66 -81 93 -111 63z"/>
<path d="M585 764 c-11 -11 -14 -24 -10 -38 15 -43 17 -104 4 -127 -7 -13 -26
-41 -42 -61 -27 -33 -29 -41 -19 -63 18 -40 54 -33 99 19 44 50 63 101 63 170
0 89 -52 143 -95 100z"/>
<path d="M2395 866 c-72 -31 -87 -83 -32 -116 17 -11 45 -20 60 -20 33 0 82
24 90 43 9 25 -5 67 -31 87 -29 23 -45 24 -87 6z m53 -64 c4 -28 -24 -40 -45
-19 -14 13 -14 19 -3 32 18 22 44 15 48 -13z"/>
</g>
</svg>
